<?xml version="1.0" encoding="utf-8"?>
<!-- Generator: Adobe Illustrator 16.0.0, SVG Export Plug-In . SVG Version: 6.00 Build 0)  -->
<!DOCTYPE svg PUBLIC "-//W3C//DTD SVG 1.1 Tiny//EN" "http://www.w3.org/Graphics/SVG/1.1/DTD/svg11-tiny.dtd">
<svg version="1.1" baseProfile="tiny" id="Layer_1" xmlns="http://www.w3.org/2000/svg" xmlns:xlink="http://www.w3.org/1999/xlink"
	 x="0px" y="0px" width="256px" height="190px" viewBox="0 0 256 190" xml:space="preserve">
<g>
	<path d="M256,178.573c0,6.285-5.143,11.427-11.428,11.427H11.427C5.143,190,0,184.857,0,178.573V11.427C0,5.143,5.143,0,11.427,0
		h233.145C250.857,0,256,5.143,256,11.427V178.573z"/>
	<rect x="16" y="16" fill="#EDEDED" width="224" height="158"/>
	<rect x="199.998" y="16" fill="#CCCCCC" width="40.001" height="158"/>
</g>
<path d="M102.087,103.938c-1.055-0.609-2.087-2.104-2.087-3.322V58.857c0-1.218,1.033-2.712,2.087-3.322l36.25-20.88
	c1.055-0.609,2.823-0.609,3.878,0l36.016,20.88c1.055,0.609,1.77,2.104,1.77,3.322v41.759c0,1.218-0.693,2.712-1.748,3.322
	l-36.079,20.881c-1.055,0.609-2.823,0.609-3.878,0L102.087,103.938z"/>
<g>
	<path fill="#FFFFFF" d="M140.469,48.917l27.166,15.366v30.739l-27.166,15.366l-27.167-15.366V64.284L140.469,48.917z"/>
	<g>
		<path fill="#8ED6FB" d="M165.941,95.97l-24.42,13.815V99.027l15.215-8.372L165.941,95.97L165.941,95.97z M167.615,94.457V65.57
			l-8.933,5.163v18.569L167.615,94.457L167.615,94.457z M114.955,95.97l24.421,13.815V99.027l-15.224-8.372L114.955,95.97z
			 M113.282,94.457V65.57l8.934,5.163v18.569L113.282,94.457z M114.33,63.697l25.046-14.167v10.397l-16.05,8.829l-0.127,0.072
			L114.33,63.697z M166.566,63.697L141.521,49.53v10.397l16.047,8.821l0.129,0.072L166.566,63.697L166.566,63.697z"/>
		<path fill="#1C78C0" d="M139.376,96.579l-15.017-8.26V71.966l15.017,8.668V96.579z M141.521,96.579l15.016-8.252v-16.36
			l-15.016,8.668V96.579z M125.376,70.077l15.073-8.285l15.07,8.285l-15.07,8.701L125.376,70.077z"/>
	</g>
</g>
<path d="M44.037,113.237c-4.301,0.019-7.802-3.456-7.82-7.762c-0.008-2.143,0.869-4.197,2.42-5.674l20.526-19.672L38.395,59.522
	c-3.021-3.08-2.973-8.026,0.104-11.047c3.078-3.023,8.021-2.977,11.041,0.103L75.812,74.83c3.078,3.006,3.137,7.94,0.132,11.02
	c-0.043,0.044-0.088,0.087-0.132,0.132l-26.515,24.936C47.908,112.338,46.022,113.168,44.037,113.237z"/>
<g>
</g>
<g>
</g>
<g>
</g>
<g>
</g>
<g>
</g>
<g>
</g>
<g>
</g>
<g>
</g>
<g>
</g>
<g>
</g>
<g>
</g>
<g>
</g>
<g>
</g>
<g>
</g>
<g>
</g>
</svg>
